<?xml version="1.0" encoding="UTF-8"?>
<svg xmlns="http://www.w3.org/2000/svg" xmlns:xlink="http://www.w3.org/1999/xlink" width="750" height="500">
<rect width="750" height="500" fill="#9c1f2d"/>
<g id="castle" fill="#fcb714" stroke="#000" stroke-width="0.6904">
<path d="M37.391,113.35,52.6,62.616h31.178l15.209,50.733h-20.315v-21.837l-0.109-1.087-0.109-1.086-0.218-0.978-0.435-0.978-0.435-0.869-0.543-0.869-0.543-0.76-0.652-0.761-0.761-0.761-0.869-0.543-0.869-0.543-0.869-0.435-0.978-0.434-0.978-0.218-1.087-0.109-0.978-0.109h-0.652l-0.435,0.109h-0.544l-0.543,0.109-0.978,0.218-0.978,0.434-0.869,0.435-0.869,0.543-0.869,0.543-0.652,0.761-0.761,0.761-0.543,0.76-0.543,0.869-0.435,0.869-0.435,0.978-0.218,0.978-0.109,0.543v0.543l-0.109,0.544v22.379h-20.306"/>
<path d="m55.207,42.518v9.668h4.019v-18.25h-10.32v8.582h6.301"/>
<path d="m63.898,52.187v-9.668h8.582v9.668h0.869v-24.443h-10.32v24.443h0.869"/>
<path d="m81.279,52.187v-9.668h6.192v-8.582h-10.32v18.251h4.128"/>
<path d="m55.207,42.518v9.668h8.691v-9.668h8.582v9.668h8.799v-9.668h8.582v16.73h-43.236v-16.73h8.582"/>
<path d="M46.408,32.975h15.317v-5.758h-15.317v5.758z" stroke-width="0.75"/>
<path d="M60.53,26.783h15.317v-5.975h-15.317v5.975z" stroke-width="0.75"/>
<path d="M74.653,32.975h15.426v-5.758h-15.426v5.758z" stroke-width="0.75"/>
</g>
<use xlink:href="#castle" x="72.597"/>
<use xlink:href="#castle" y="106.21344"/>
<use xlink:href="#castle" x="72.597" y="106.21344"/>
<path id="crown" fill="#fcb714" stroke="#000" stroke-width="0.6983" stroke-linejoin="round" d="m609.33,369.29c-0.012-1.7832-0.67184-3.4793-1.3103-5.1284-1.1443-2.5127-2.6204-4.8721-4.2565-7.0929,1.582,0.55929,3.2377,0.96325,4.7996,1.5895,1.3396,0.71535,2.7603,1.3123,3.9123,2.3276,0.62399,0.49634,1.2605,1.1102,1.5458,1.8665,0.0708,0.77814,0.0259,1.6789-0.76401,2.0754-0.48994,0.5491-1.1815,0.78626-1.8566,0.98173,0.0885,0.89734,0.50733,1.7398,0.97814,2.4706,0.87447,0.7544,1.9995,1.0486,3.1373,0.9131,1.6285-0.20029,3.0878-1.2096,3.9327-2.6076,0.50637-0.76272,0.70144-1.2946,1.0713-0.11709,0.49287,0.71229,1.095,1.4026,1.7684,1.9642,1.1426,0.82727,2.592,1.0626,3.9742,0.97819,0.83045-0.0147,1.7707-0.23689,2.4435-0.6581,0.78746-0.73422,0.70645-2.0173,0.38179-2.9614-0.40756-0.54518-1.2922-0.78625-1.9806-0.53218-0.6401-0.13764-1.8473,0.79009-1.165-0.34002,0.10845-0.82753,0.71817-1.5482,1.2832-2.1297,0.45723-0.43032,1.2098-0.66829,1.6436-0.80403,0.67582-1.2104,1.2852-2.6979,2.6206-3.2748,1.0544-0.054,1.7657,0.99264,2.3485,1.7488,0.41619,0.50952,0.53732,1.6216,1.1904,1.6359,0.95477,0.30703,1.8445,1.012,2.2374,1.9463,0.19354,0.40725,1.117,1.8687,0.19614,1.389-0.73468-0.13896-1.5285-0.38955-2.2582-0.17133-0.79159,0.20992-1.0343,0.93124-0.98375,1.6833-0.12017,0.97177,0.39548,2.0008,1.429,2.179,1.1182,0.36839,2.372,0.39719,3.5099,0.17155,1.0781-0.1781,2.0733-0.65105,2.79-1.4988,0.68623-0.60132,1.1504-1.431,1.5502-2.2034,0.62504,1.1222,1.379,2.3536,2.591,2.9525,1.3676,0.79859,3.2331,0.97423,4.6128,0.10455,0.91444-0.62886,1.2726-1.7757,1.4202-2.8384-0.75003-0.17593-1.3738-0.56081-1.9597-1.0506-1.1772-0.7659-0.61857-2.4599,0.23319-3.2741,0.99263-0.98149,2.2026-1.7927,3.4929-2.3546,1.1372-0.51489,2.2338-1.1363,3.4832-1.3695,0.81611-0.3196,1.6561-0.5566,2.4984-0.79187-1.0728,1.3254-1.9221,2.8462-2.8976,4.254-0.97156,1.8806-2.0636,3.7482-2.4204,5.8682-0.48206,1.8959-0.15196,3.88-0.24891,5.8184v8.1743h-44.954v-11.894"/>
<use xlink:href="#crown" x="-61.869" y="31.532"/>
<use xlink:href="#crown" y="31.532"/>
<use xlink:href="#crown" x="61.865" y="31.532"/>
<use xlink:href="#crown" x="-33.952" y="63.394"/>
<use xlink:href="#crown" x="33.934" y="63.394"/>
<use xlink:href="#crown" y="94.927"/>
</svg>
