<?xml version="1.0" encoding="UTF-8"?>
<svg width="750" height="500" version="1.1" xmlns="http://www.w3.org/2000/svg" xmlns:xlink="http://www.w3.org/1999/xlink">
 <path d="m0 0v500h750v-500z" fill="#fff"/>
 <path d="m0 0h375v500h375zm750 0v250h-750v250z" stroke-width="125"/>
 <g transform="matrix(.27617 0 0 .27617 276.95 125.06)">
  <symbol id="elm1" viewBox="-41.667 -49.998 83.334 99.997">
   <g fill="#fff" stroke="#000">
    <path d="m-41.167 49.499v-57.83c0-22.735 18.431-41.167 41.167-41.167 22.735 0 41.167 18.432 41.167 41.167v57.83z" fill="#0069af" stroke-width="1.5"/>
    <path d="m-9.394 23.727c0.037-5.754-4.597-10.447-10.351-10.484-5.753-0.036-10.447 4.6-10.484 10.354v0.134c-0.037 5.753 4.598 10.443 10.351 10.479 5.753 0.037 10.447-4.598 10.483-10.351 1e-3 -0.046 1e-3 -0.09 1e-3 -0.132z"/>
    <path d="m30.215 23.727c0.037-5.754-4.598-10.447-10.352-10.484-5.754-0.036-10.447 4.6-10.483 10.354v0.134c-0.036 5.752 4.599 10.443 10.35 10.479 5.754 0.037 10.447-4.598 10.484-10.351 1e-3 -0.046 1e-3 -0.09 1e-3 -0.132z"/>
    <path d="m10.41 2.956c0.037-5.754-4.597-10.443-10.35-10.48s-10.447 4.597-10.484 10.351v0.133c-0.037 5.753 4.598 10.447 10.351 10.483 5.753 0.037 10.447-4.601 10.483-10.354 1e-3 -0.044 1e-3 -0.089 0-0.133z"/>
    <path d="m-9.394-17.808c0.037-5.754-4.597-10.447-10.351-10.484-5.753-0.036-10.447 4.602-10.484 10.354v0.133c-0.037 5.753 4.598 10.447 10.351 10.482 5.753 0.034 10.447-4.601 10.483-10.354 1e-3 -0.042 1e-3 -0.087 1e-3 -0.131z"/>
    <path d="m30.215-17.808c0.037-5.754-4.598-10.447-10.352-10.484-5.754-0.036-10.447 4.602-10.483 10.354v0.133c-0.036 5.753 4.599 10.448 10.35 10.483 5.754 0.034 10.447-4.601 10.484-10.354 1e-3 -0.043 1e-3 -0.088 1e-3 -0.132z"/>
   </g>
  </symbol>
  <symbol id="elm2" viewBox="-29.194 -45.015 58.389 90.03">
   <path d="m22.447 30.281v-25.365l-3.804 3.236v23.064z" fill="#eac102" stroke="#000" stroke-linecap="round" stroke-linejoin="round" stroke-width=".5"/>
   <path d="m20.637 30.564 1.865-1.182 2.086 1.975-2.152 1.213z" fill="#eac102" stroke="#000" stroke-linecap="round" stroke-linejoin="round" stroke-width=".5"/>
   <path d="m22.436 36.682 2.142-1.561v-3.762l-2.142 1.209z" fill="#eac102" stroke="#000" stroke-linecap="round" stroke-linejoin="round" stroke-width=".5"/>
   <path d="m9.634 30.281v-25.365l3.913 3.35v23.063z" fill="#eac102" stroke="#000" stroke-linecap="round" stroke-linejoin="round" stroke-width=".5"/>
   <path d="m11.443 30.564-1.865-1.182-2.086 1.975 2.152 1.213z" fill="#eac102" stroke="#000" stroke-linecap="round" stroke-linejoin="round" stroke-width=".5"/>
   <path d="m9.645 36.682-2.142-1.561v-3.762l2.142 1.209z" fill="#eac102" stroke="#000" stroke-linecap="round" stroke-linejoin="round" stroke-width=".5"/>
   <path d="m9.614 32.6 1.724-2.029h9.39l1.72 2.037z" fill="#eac102" stroke="#000" stroke-linecap="round" stroke-linejoin="round" stroke-width=".5"/>
   <path d="m9.634 36.682h2.424v-1.877h2.72v1.877h2.486v-1.877h2.657v1.877h2.504v-4.061h-12.791z" fill="#eac102" stroke="#000" stroke-linecap="round" stroke-linejoin="round" stroke-width=".5"/>
   <path d="m11.413 30.564v-24.074h9.24v24.074zm4.638-4.298c1.035-0.029 1.995-0.504 2.04-2.574 0.045-2.068-0.012-5.955-0.012-5.955h-4.056s-0.076 4.051-0.048 6.004 1.042 2.552 2.076 2.525z" fill="#eac102" stroke="#000" stroke-linecap="round" stroke-linejoin="round" stroke-width=".5"/>
   <path d="m6.405 38.395v-33.612l-3.695 2.91v31.311z" fill="#eac102" stroke="#000" stroke-linecap="round" stroke-linejoin="round" stroke-width=".5"/>
   <path d="m4.595 38.666 1.865-1.184 2.086 1.977-2.152 1.211z" fill="#eac102" stroke="#000" stroke-linecap="round" stroke-linejoin="round" stroke-width=".5"/>
   <path d="m6.394 44.766 2.142-1.561v-3.764l-2.142 1.213z" fill="#eac102" stroke="#000" stroke-linecap="round" stroke-linejoin="round" stroke-width=".5"/>
   <path d="m-6.408 38.395v-33.528l3.586 3.021v31.225z" fill="#eac102" stroke="#000" stroke-linecap="round" stroke-linejoin="round" stroke-width=".5"/>
   <path d="m-4.599 38.666-1.865-1.184-2.086 1.977 2.152 1.211z" fill="#eac102" stroke="#000" stroke-linecap="round" stroke-linejoin="round" stroke-width=".5"/>
   <path d="m-6.397 44.766-2.142-1.561v-3.764l2.142 1.209z" fill="#eac102" stroke="#000" stroke-linecap="round" stroke-linejoin="round" stroke-width=".5"/>
   <path d="m-6.428 40.686 1.724-2.027h9.39l1.72 2.037z" fill="#eac102" stroke="#000" stroke-linecap="round" stroke-linejoin="round" stroke-width=".5"/>
   <path d="m-6.408 44.766h2.424v-1.877h2.72v1.877h2.486v-1.877h2.657v1.877h2.504v-4.061h-12.793v4.061z" fill="#eac102" stroke="#000" stroke-linecap="round" stroke-linejoin="round" stroke-width=".5"/>
   <path d="m-4.641 38.666v-32.486h9.25v32.486zm4.651-4.398c1.035-0.027 1.995-0.5 2.04-2.561 0.045-2.059-0.012-5.922-0.012-5.922l-4.056 0.016s-0.076 4.016-0.048 5.957 1.041 2.543 2.076 2.51z" fill="#eac102" stroke="#000" stroke-linecap="round" stroke-linejoin="round" stroke-width=".5"/>
   <path d="m-9.64 30.281v-25.365l-3.804 3.236v23.064z" fill="#eac102" stroke="#000" stroke-linecap="round" stroke-linejoin="round" stroke-width=".5"/>
   <path d="m-11.449 30.564 1.865-1.182 2.086 1.975-2.152 1.213z" fill="#eac102" stroke="#000" stroke-linecap="round" stroke-linejoin="round" stroke-width=".5"/>
   <path d="m-9.65 36.682 2.142-1.561v-3.762l-2.142 1.209z" fill="#eac102" stroke="#000" stroke-linecap="round" stroke-linejoin="round" stroke-width=".5"/>
   <path d="m-22.453 30.281v-25.365l3.913 3.35v23.063z" fill="#eac102" stroke="#000" stroke-linecap="round" stroke-linejoin="round" stroke-width=".5"/>
   <path d="m-20.643 30.564-1.865-1.182-2.086 1.975 2.152 1.213z" fill="#eac102" stroke="#000" stroke-linecap="round" stroke-linejoin="round" stroke-width=".5"/>
   <path d="m-22.44 36.682-2.142-1.561v-3.762l2.142 1.209z" fill="#eac102" stroke="#000" stroke-linecap="round" stroke-linejoin="round" stroke-width=".5"/>
   <path d="m-22.473 32.6 1.724-2.029h9.39l1.72 2.037z" fill="#eac102" stroke="#000" stroke-linecap="round" stroke-linejoin="round" stroke-width=".5"/>
   <path d="m-22.453 36.682h2.424v-1.877h2.72v1.877h2.486v-1.877h2.657v1.877h2.504v-4.061h-12.791z" fill="#eac102" stroke="#000" stroke-linecap="round" stroke-linejoin="round" stroke-width=".5"/>
   <path d="m-20.673 30.564v-24.074h9.24v24.074zm4.637-4.298c1.035-0.029 1.995-0.504 2.04-2.574 0.045-2.068-0.012-5.955-0.012-5.955h-4.055s-0.077 4.051-0.049 6.004c0.029 1.952 1.043 2.552 2.076 2.525z" fill="#eac102" stroke="#000" stroke-linecap="round" stroke-linejoin="round" stroke-width=".5"/>
   <path d="m4.652 20.934 1.752-1.107" fill="none" stroke="#000" stroke-width=".5"/>
   <path d="m4.652 24.449 1.752-1.104" fill="none" stroke="#000" stroke-width=".5"/>
   <path d="m4.652 27.971 1.752-1.107" fill="none" stroke="#000" stroke-width=".5"/>
   <path d="m4.652 31.482 1.752-1.107" fill="none" stroke="#000" stroke-width=".5"/>
   <path d="m4.652 34.998 1.752-1.104" fill="none" stroke="#000" stroke-width=".5"/>
   <path d="m-4.656 20.934-1.752-1.107" fill="none" stroke="#000" stroke-width=".5"/>
   <path d="m-4.656 24.449-1.752-1.104" fill="none" stroke="#000" stroke-width=".5"/>
   <path d="m-4.656 27.971-1.752-1.107" fill="none" stroke="#000" stroke-width=".5"/>
   <path d="m-4.656 31.482-1.752-1.107" fill="none" stroke="#000" stroke-width=".5"/>
   <path d="m-4.656 34.998-1.752-1.104" fill="none" stroke="#000" stroke-width=".5"/>
   <path d="m-0.075 24.57v1.164" fill="#eac102" stroke="#000" stroke-linecap="round" stroke-linejoin="round" stroke-width=".5"/>
   <path d="m-4.668 34.947h9.214" fill="#eac102" stroke="#000" stroke-linecap="round" stroke-linejoin="round" stroke-width=".5"/>
   <path d="m2.244 31.486h2.235" fill="#eac102" stroke="#000" stroke-linecap="round" stroke-linejoin="round" stroke-width=".5"/>
   <path d="m2.13 27.869h2.284" fill="#eac102" stroke="#000" stroke-linecap="round" stroke-linejoin="round" stroke-width=".5"/>
   <path d="m-4.668 24.527h9.214" fill="#eac102" stroke="#000" stroke-linecap="round" stroke-linejoin="round" stroke-width=".5"/>
   <path d="m-4.668 20.91h9.214" fill="#eac102" stroke="#000" stroke-linecap="round" stroke-linejoin="round" stroke-width=".5"/>
   <path d="m-0.014 17.736v3.074" fill="#eac102" stroke="#000" stroke-linecap="round" stroke-linejoin="round" stroke-width=".5"/>
   <path d="m-1.544 21.023v3.414" fill="#eac102" stroke="#000" stroke-linecap="round" stroke-linejoin="round" stroke-width=".5"/>
   <path d="m1.852 20.988v3.449" fill="#eac102" stroke="#000" stroke-linecap="round" stroke-linejoin="round" stroke-width=".5"/>
   <path d="m-1.544 35.104v3.527" fill="#eac102" stroke="#000" stroke-linecap="round" stroke-linejoin="round" stroke-width=".5"/>
   <path d="m1.786 35.141 0.065 3.479" fill="#eac102" stroke="#000" stroke-linecap="round" stroke-linejoin="round" stroke-width=".5"/>
   <path d="m4.652 17.539 1.752-1.104" fill="none" stroke="#000" stroke-width=".5"/>
   <path d="m-4.656 17.539-1.752-1.104" fill="none" stroke="#000" stroke-width=".5"/>
   <path d="m-4.668 17.615h9.214" fill="#eac102" stroke="#000" stroke-linecap="round" stroke-linejoin="round" stroke-width=".5"/>
   <path d="m4.652 13.938 1.752-1.107" fill="none" stroke="#000" stroke-width=".5"/>
   <path d="m-4.656 13.938-1.752-1.107" fill="none" stroke="#000" stroke-width=".5"/>
   <path d="m-4.668 13.918h9.214" fill="#eac102" stroke="#000" stroke-linecap="round" stroke-linejoin="round" stroke-width=".5"/>
   <path d="m-1.544 14.025v3.416" fill="#eac102" stroke="#000" stroke-linecap="round" stroke-linejoin="round" stroke-width=".5"/>
   <path d="m1.852 13.99v3.449" fill="#eac102" stroke="#000" stroke-linecap="round" stroke-linejoin="round" stroke-width=".5"/>
   <path d="m-0.014 6.391v7.367" fill="#eac102" stroke="#000" stroke-linecap="round" stroke-linejoin="round" stroke-width=".5"/>
   <path d="m-4.485 31.486h2.235" fill="#eac102" stroke="#000" stroke-linecap="round" stroke-linejoin="round" stroke-width=".5"/>
   <path d="m-4.508 27.869h2.284" fill="#eac102" stroke="#000" stroke-linecap="round" stroke-linejoin="round" stroke-width=".5"/>
   <path d="m-0.075 34.396v0.537" fill="#eac102" stroke="#000" stroke-linecap="round" stroke-linejoin="round" stroke-width=".5"/>
   <path d="m20.694 12.83 1.752-1.104" fill="none" stroke="#000" stroke-width=".5"/>
   <path d="m20.694 16.35 1.752-1.107" fill="none" stroke="#000" stroke-width=".5"/>
   <path d="m20.694 19.865 1.752-1.104" fill="none" stroke="#000" stroke-width=".5"/>
   <path d="m20.694 23.385 1.752-1.105" fill="none" stroke="#000" stroke-width=".5"/>
   <path d="m20.694 26.898 1.752-1.107" fill="none" stroke="#000" stroke-width=".5"/>
   <path d="m11.386 12.83-1.752-1.104" fill="none" stroke="#000" stroke-width=".5"/>
   <path d="m11.386 16.35-1.752-1.107" fill="none" stroke="#000" stroke-width=".5"/>
   <path d="m11.386 19.865-1.752-1.104" fill="none" stroke="#000" stroke-width=".5"/>
   <path d="m11.386 23.385-1.752-1.105" fill="none" stroke="#000" stroke-width=".5"/>
   <path d="m11.386 26.898-1.752-1.107" fill="none" stroke="#000" stroke-width=".5"/>
   <path d="m15.967 16.617v1.063" fill="#eac102" stroke="#000" stroke-linecap="round" stroke-linejoin="round" stroke-width=".5"/>
   <path d="m11.374 26.85h9.214" fill="#eac102" stroke="#000" stroke-linecap="round" stroke-linejoin="round" stroke-width=".5"/>
   <path d="m18.143 23.389h2.256" fill="#eac102" stroke="#000" stroke-linecap="round" stroke-linejoin="round" stroke-width=".5"/>
   <path d="m18.273 19.768h2.169" fill="#eac102" stroke="#000" stroke-linecap="round" stroke-linejoin="round" stroke-width=".5"/>
   <path d="m11.374 16.432h9.214" fill="#eac102" stroke="#000" stroke-linecap="round" stroke-linejoin="round" stroke-width=".5"/>
   <path d="m11.374 12.811h9.214" fill="#eac102" stroke="#000" stroke-linecap="round" stroke-linejoin="round" stroke-width=".5"/>
   <path d="m15.967 6.605v6.215" fill="#eac102" stroke="#000" stroke-linecap="round" stroke-linejoin="round" stroke-width=".5"/>
   <path d="m14.498 12.918v3.416" fill="#eac102" stroke="#000" stroke-linecap="round" stroke-linejoin="round" stroke-width=".5"/>
   <path d="m17.894 12.891v3.445" fill="#eac102" stroke="#000" stroke-linecap="round" stroke-linejoin="round" stroke-width=".5"/>
   <path d="m14.498 26.836v3.688" fill="#eac102" stroke="#000" stroke-linecap="round" stroke-linejoin="round" stroke-width=".5"/>
   <path d="m17.828 26.836 0.065 3.688" fill="#eac102" stroke="#000" stroke-linecap="round" stroke-linejoin="round" stroke-width=".5"/>
   <path d="m11.568 23.389h2.256" fill="#eac102" stroke="#000" stroke-linecap="round" stroke-linejoin="round" stroke-width=".5"/>
   <path d="m11.521 19.768h2.169" fill="#eac102" stroke="#000" stroke-linecap="round" stroke-linejoin="round" stroke-width=".5"/>
   <path d="m15.967 26.322v0.441" fill="#eac102" stroke="#000" stroke-linecap="round" stroke-linejoin="round" stroke-width=".5"/>
   <path d="m-11.392 12.83 1.752-1.104" fill="none" stroke="#000" stroke-width=".5"/>
   <path d="m-11.392 16.35 1.752-1.107" fill="none" stroke="#000" stroke-width=".5"/>
   <path d="m-11.392 19.865 1.752-1.104" fill="none" stroke="#000" stroke-width=".5"/>
   <path d="m-11.392 23.385 1.752-1.105" fill="none" stroke="#000" stroke-width=".5"/>
   <path d="m-11.392 26.898 1.752-1.107" fill="none" stroke="#000" stroke-width=".5"/>
   <path d="m-20.7 12.83-1.752-1.104" fill="none" stroke="#000" stroke-width=".5"/>
   <path d="m-20.7 16.35-1.752-1.107" fill="none" stroke="#000" stroke-width=".5"/>
   <path d="m-20.7 19.865-1.752-1.104" fill="none" stroke="#000" stroke-width=".5"/>
   <path d="m-20.7 23.385-1.752-1.105" fill="none" stroke="#000" stroke-width=".5"/>
   <path d="m-20.7 26.898-1.752-1.107" fill="none" stroke="#000" stroke-width=".5"/>
   <path d="m-16.12 16.617v1.063" fill="#eac102" stroke="#000" stroke-linecap="round" stroke-linejoin="round" stroke-width=".5"/>
   <path d="m-20.711 26.85h9.214" fill="#eac102" stroke="#000" stroke-linecap="round" stroke-linejoin="round" stroke-width=".5"/>
   <path d="m-13.943 23.389h2.256" fill="#eac102" stroke="#000" stroke-linecap="round" stroke-linejoin="round" stroke-width=".5"/>
   <path d="m-13.813 19.768h2.169" fill="#eac102" stroke="#000" stroke-linecap="round" stroke-linejoin="round" stroke-width=".5"/>
   <path d="m-20.711 16.432h9.214" fill="#eac102" stroke="#000" stroke-linecap="round" stroke-linejoin="round" stroke-width=".5"/>
   <path d="m-20.711 12.811h9.214" fill="#eac102" stroke="#000" stroke-linecap="round" stroke-linejoin="round" stroke-width=".5"/>
   <path d="m-16.12 6.605v6.215" fill="#eac102" stroke="#000" stroke-linecap="round" stroke-linejoin="round" stroke-width=".5"/>
   <path d="m-17.588 12.918v3.416" fill="#eac102" stroke="#000" stroke-linecap="round" stroke-linejoin="round" stroke-width=".5"/>
   <path d="m-14.192 12.891v3.445" fill="#eac102" stroke="#000" stroke-linecap="round" stroke-linejoin="round" stroke-width=".5"/>
   <path d="m-17.588 26.836v3.688" fill="#eac102" stroke="#000" stroke-linecap="round" stroke-linejoin="round" stroke-width=".5"/>
   <path d="m-14.258 26.836 0.066 3.688" fill="#eac102" stroke="#000" stroke-linecap="round" stroke-linejoin="round" stroke-width=".5"/>
   <path d="m-20.518 23.389h2.256" fill="#eac102" stroke="#000" stroke-linecap="round" stroke-linejoin="round" stroke-width=".5"/>
   <path d="m-20.564 19.768h2.169" fill="#eac102" stroke="#000" stroke-linecap="round" stroke-linejoin="round" stroke-width=".5"/>
   <path d="m-16.12 26.322v0.441" fill="#eac102" stroke="#000" stroke-linecap="round" stroke-linejoin="round" stroke-width=".5"/>
   <path d="m-13.204-15.863s-0.091 6.396-0.055 9.482c0.037 3.088 1.372 4.035 2.743 3.99s2.65-0.793 2.709-4.066c0.06-3.27-0.017-9.414-0.017-9.414z" fill="#0071bc" stroke="#000" stroke-linecap="round" stroke-linejoin="round" stroke-width=".5"/>
   <path d="m7.844-15.863s-0.092 6.396-0.055 9.482 1.372 4.035 2.743 3.99 2.649-0.793 2.709-4.066c0.06-3.27-0.017-9.414-0.017-9.414z" fill="#0071bc" stroke="#000" stroke-linecap="round" stroke-linejoin="round" stroke-width=".5"/>
   <path d="m-3.791-44.75s-0.129 5.73-0.077 10.18c0.052 4.441 1.939 5.807 3.877 5.74 1.938-0.063 3.745-1.143 3.829-5.852 0.084-4.707-0.024-10.072-0.024-10.072z" fill="#0071bc" stroke="#000" stroke-linecap="round" stroke-linejoin="round" stroke-width=".5"/>
   <path d="m-18.064 17.646s-0.069 4.008-0.041 5.943 1.036 2.525 2.07 2.502c1.035-0.029 2-0.498 2.044-2.553 0.045-2.051-0.013-5.895-0.013-5.895z" fill="#0071bc" stroke="#000" stroke-linecap="round" stroke-linejoin="round" stroke-width=".5"/>
   <path d="m14.02 17.646s-0.069 4.008-0.041 5.943 1.036 2.525 2.07 2.502c1.035-0.029 2-0.498 2.044-2.553 0.045-2.051-0.013-5.895-0.013-5.895z" fill="#0071bc" stroke="#000" stroke-linecap="round" stroke-linejoin="round" stroke-width=".5"/>
   <path d="m-2.022 25.729s-0.069 4.008-0.041 5.939c0.028 1.938 1.036 2.529 2.07 2.504 1.035-0.027 2-0.496 2.044-2.551 0.045-2.051-0.013-5.896-0.013-5.896z" fill="#0071bc" stroke="#000" stroke-linecap="round" stroke-linejoin="round" stroke-width=".5"/>
   <path d="m-18.783 7.662-8.608-2.307 2.538-2.537v-29.006l-4.091-4.08v-9.178l9.167-5.311h15.966c-0.035 3.107-0.098 7.004-0.061 10.189 0.013 1.105 0.149 2.025 0.364 2.777 0.107 0.379 0.229 0.715 0.376 1.01 0.147 0.297 0.318 0.555 0.498 0.773 0.18 0.227 0.376 0.404 0.583 0.563 0.207 0.152 0.418 0.279 0.644 0.377 0.451 0.188 0.936 0.258 1.42 0.242 0.485-0.02 0.953-0.1 1.396-0.279 0.222-0.092 0.441-0.215 0.644-0.363 0.202-0.146 0.395-0.314 0.571-0.535 0.176-0.217 0.329-0.471 0.473-0.766 0.144-0.293 0.271-0.637 0.376-1.02 0.211-0.768 0.343-1.715 0.364-2.893 0.061-3.354 0.015-7.051-0.012-10.078h15.941l9.179 5.311v9.178l-4.091 4.08v29.007l2.525 2.537-8.596 2.307zm8.002-10.053c0.085 4e-3 0.169 2e-3 0.255 0 1.371-0.045 2.647-0.795 2.708-4.068 0.06-3.27-0.012-9.422-0.012-9.422l-5.378 0.018s-0.098 6.391-0.061 9.479c0.033 2.898 1.21 3.913 2.488 3.993zm21.052 0c0.085 4e-3 0.169 2e-3 0.255 0 1.371-0.045 2.647-0.795 2.708-4.068 0.06-3.27-0.024-9.422-0.024-9.422l-5.378 0.018s-0.085 6.391-0.049 9.479c0.033 2.898 1.212 3.913 2.488 3.993z" fill="#eac102" stroke="#000" stroke-linecap="round" stroke-linejoin="round" stroke-width=".5"/>
   <path d="m-28.912-30.258 9.163-5.215v-9.205" fill="none" stroke="#000" stroke-width=".5"/>
   <path d="m-24.843-26.178 9.065-2.41m-4.015-6.873 4.002 6.859" fill="none" stroke="#000" stroke-width=".5"/>
   <path d="m-15.788-28.549v33.15" fill="none" stroke="#000" stroke-width=".5"/>
   <path d="m-18.706 7.662 2.886-2.928" fill="none" stroke="#000" stroke-width=".5"/>
   <path d="m-24.863 2.807 9.108 1.896" fill="none" stroke="#000" stroke-width=".5"/>
   <path d="m28.908-30.258-9.162-5.215v-9.205" fill="none" stroke="#000" stroke-width=".5"/>
   <path d="m24.839-26.178-9.065-2.41m4.016-6.873-4.002 6.859" fill="none" stroke="#000" stroke-width=".5"/>
   <path d="m15.784-28.549v33.15" fill="none" stroke="#000" stroke-width=".5"/>
   <path d="m18.702 7.662-2.887-2.928" fill="none" stroke="#000" stroke-width=".5"/>
   <path d="m24.859 2.807-9.108 1.896" fill="none" stroke="#000" stroke-width=".5"/>
   <path d="m-15.803-28.625h31.588" fill="none" stroke="#000" stroke-width=".5"/>
   <path d="m-15.803 4.709h31.588" fill="none" stroke="#000" stroke-width=".5"/>
   <path d="m4.688-35.463h14.964" fill="none" stroke="#000" stroke-width=".5"/>
   <path d="m-19.666-35.463h14.964" fill="none" stroke="#000" stroke-width=".5"/>
   <path d="m-0.11-26.373c-3.231 0.086-6.384-1.691-6.471-7.516-0.086-5.82 0.134-10.865 0.134-10.865h2.635c-0.035 3.109-0.098 6.994-0.061 10.174 0.013 1.111 0.15 2.029 0.364 2.781 0.107 0.375 0.229 0.711 0.376 1.008 0.147 0.295 0.317 0.559 0.498 0.775 0.18 0.223 0.377 0.404 0.583 0.559 0.206 0.156 0.418 0.283 0.644 0.377 0.45 0.189 0.936 0.264 1.42 0.242 0.484-0.016 0.953-0.096 1.396-0.275 0.222-0.096 0.442-0.219 0.644-0.363 0.202-0.148 0.395-0.318 0.571-0.535 0.176-0.215 0.33-0.471 0.474-0.764 0.144-0.295 0.271-0.643 0.376-1.021 0.211-0.766 0.343-1.713 0.364-2.891 0.06-3.355 0.014-7.051-0.012-10.078h2.404s0.177 4.568 0.037 10.73c-0.143 6.172-3.145 7.578-6.376 7.662z" fill="#eac102" stroke="#000" stroke-linecap="round" stroke-linejoin="round" stroke-width=".5"/>
   <path d="m24.992 12.752-1.425-0.383v-2.789l2.07 0.559v1.797z" fill="#eac102" stroke="#000" stroke-linecap="round" stroke-linejoin="round" stroke-width=".5"/>
   <path d="m18.604 15.592 3.292-1.457v-2.438l3.092-0.971v2.041l2.521-1.113v-6.183l-8.923 2.088z" fill="#eac102" stroke="#000" stroke-linecap="round" stroke-linejoin="round" stroke-width=".5"/>
   <path d="m-24.996 12.752 1.425-0.383v-2.789l-2.07 0.559v1.797z" fill="#eac102" stroke="#000" stroke-linecap="round" stroke-linejoin="round" stroke-width=".5"/>
   <path d="m-18.608 15.592-3.292-1.457v-2.438l-3.092-0.971v2.041l-2.521-1.113v-6.183l8.923 1.871z" fill="#eac102" stroke="#000" stroke-linecap="round" stroke-linejoin="round" stroke-width=".5"/>
   <path d="m-11.106 15.592h-7.552v-8.147h37.31v8.146h-7.479v-3.363h-7.491v3.363h-7.285v-3.363h-7.503z" fill="#eac102" stroke="#000" stroke-linecap="round" stroke-linejoin="round" stroke-width=".5"/>
   <path d="m24.699-2.063-8.958 1.209" fill="none" stroke="#000" stroke-width=".5"/>
   <path d="m24.709-6.9-8.84 0.496" fill="none" stroke="#000" stroke-width=".5"/>
   <path d="m24.713-11.697-8.773-0.258" fill="none" stroke="#000" stroke-width=".5"/>
   <path d="m24.733-16.551-8.994-0.955" fill="none" stroke="#000" stroke-width=".5"/>
   <path d="m24.675-21.373-8.938-1.684" fill="none" stroke="#000" stroke-width=".5"/>
   <path d="m19.784-40.045 9.11 5.264" fill="none" stroke="#000" stroke-width=".5"/>
   <path d="m20.332 3.656v-5.07" fill="none" stroke="#000" stroke-width=".5"/>
   <path d="m20.332-6.658v-5.072" fill="none" stroke="#000" stroke-width=".5"/>
   <path d="m20.332-17.063v-5.072" fill="none" stroke="#000" stroke-width=".5"/>
   <path d="m20.332-27.434 4.03-5.357" fill="none" stroke="#000" stroke-width=".5"/>
   <path d="m24.345-42.025v4.539" fill="none" stroke="#000" stroke-width=".5"/>
   <path d="m17.682-1.15v-5.332" fill="none" stroke="#000" stroke-width=".5"/>
   <path d="m23.334-1.9v-4.83" fill="none" stroke="#000" stroke-width=".5"/>
   <path d="m17.682-11.955v-5.268" fill="none" stroke="#000" stroke-width=".5"/>
   <path d="m23.334-11.854v-4.896" fill="none" stroke="#000" stroke-width=".5"/>
   <path d="m17.682-22.674v-5.332" fill="none" stroke="#000" stroke-width=".5"/>
   <path d="m23.334-21.707v-4.943" fill="none" stroke="#000" stroke-width=".5"/>
   <path d="m21.614-34.375v-4.555" fill="none" stroke="#000" stroke-width=".5"/>
   <path d="m27.27-31.225v-4.564" fill="none" stroke="#000" stroke-width=".5"/>
   <path d="m-19.792-40.072-9.107 5.313" fill="none" stroke="#000" stroke-width=".5"/>
   <path d="m-24.788-2.063 8.958 1.209" fill="none" stroke="#000" stroke-width=".5"/>
   <path d="m-24.799-6.9 9.042 0.496" fill="none" stroke="#000" stroke-width=".5"/>
   <path d="m-24.803-11.697 8.975-0.258" fill="none" stroke="#000" stroke-width=".5"/>
   <path d="m-24.822-16.551 8.994-0.955" fill="none" stroke="#000" stroke-width=".5"/>
   <path d="m-24.769-21.373 8.938-1.684" fill="none" stroke="#000" stroke-width=".5"/>
   <path d="m-19.772-40.045-9.11 5.264" fill="none" stroke="#000" stroke-width=".5"/>
   <path d="m-20.319 3.656v-5.07" fill="none" stroke="#000" stroke-width=".5"/>
   <path d="m-20.319-6.658v-5.072" fill="none" stroke="#000" stroke-width=".5"/>
   <path d="m-20.319-17.063v-5.072" fill="none" stroke="#000" stroke-width=".5"/>
   <path d="m-20.319-27.434-4.03-5.357" fill="none" stroke="#000" stroke-width=".5"/>
   <path d="m-24.333-42.025v4.539" fill="none" stroke="#000" stroke-width=".5"/>
   <path d="m-17.669-1.15v-5.332" fill="none" stroke="#000" stroke-width=".5"/>
   <path d="m-23.327-1.9v-4.83" fill="none" stroke="#000" stroke-width=".5"/>
   <path d="m-17.669-11.955v-5.268" fill="none" stroke="#000" stroke-width=".5"/>
   <path d="m-23.327-11.854v-4.896" fill="none" stroke="#000" stroke-width=".5"/>
   <path d="m-17.669-22.674v-5.332" fill="none" stroke="#000" stroke-width=".5"/>
   <path d="m-23.327-21.707v-4.943" fill="none" stroke="#000" stroke-width=".5"/>
   <path d="m-21.605-34.375v-4.555" fill="none" stroke="#000" stroke-width=".5"/>
   <path d="m-27.258-31.225v-4.564" fill="none" stroke="#000" stroke-width=".5"/>
   <path d="m10.357-2.33v1.346" fill="none" stroke="#000" stroke-width=".5"/>
   <path d="m6.384-40.068h13.378" fill="none" stroke="#000" stroke-width=".5"/>
   <path d="m-15.925-0.854h31.588" fill="none" stroke="#000" stroke-width=".5"/>
   <path d="m-7.577-6.402h15.324" fill="none" stroke="#000" stroke-width=".5"/>
   <path d="m-7.669-11.955h15.277" fill="none" stroke="#000" stroke-width=".5"/>
   <path d="m-15.925-17.506h31.588" fill="none" stroke="#000" stroke-width=".5"/>
   <path d="m-15.925-23.059h31.588" fill="none" stroke="#000" stroke-width=".5"/>
   <path d="m-5.389-0.82v5.488" fill="none" stroke="#000" stroke-width=".5"/>
   <path d="m5.137-0.82v5.488" fill="none" stroke="#000" stroke-width=".5"/>
   <path d="m-5.389-11.896v5.492" fill="none" stroke="#000" stroke-width=".5"/>
   <path d="m5.137-11.896v5.492" fill="none" stroke="#000" stroke-width=".5"/>
   <path d="m-5.389-23.055v5.492" fill="none" stroke="#000" stroke-width=".5"/>
   <path d="m5.137-23.055v5.492" fill="none" stroke="#000" stroke-width=".5"/>
   <path d="m-10.623-2.219v1.221" fill="none" stroke="#000" stroke-width=".5"/>
   <path d="m-3e-3 -6.34v5.395" fill="none" stroke="#000" stroke-width=".5"/>
   <path d="m-10.623-17.383v1.404" fill="none" stroke="#000" stroke-width=".5"/>
   <path d="m-3e-3 -17.428v5.391" fill="none" stroke="#000" stroke-width=".5"/>
   <path d="m10.357-17.293v1.322" fill="none" stroke="#000" stroke-width=".5"/>
   <path d="m-10.623-28.553v5.396" fill="none" stroke="#000" stroke-width=".5"/>
   <path d="m-3e-3 -26.346v3.189" fill="none" stroke="#000" stroke-width=".5"/>
   <path d="m10.357-28.553v5.396" fill="none" stroke="#000" stroke-width=".5"/>
   <path d="m-12.624-35.32 2.032 6.693" fill="none" stroke="#000" stroke-width=".5"/>
   <path d="m12.348-35.32-2.031 6.693" fill="none" stroke="#000" stroke-width=".5"/>
   <path d="m-12.673-44.766v4.648" fill="none" stroke="#000" stroke-width=".5"/>
   <path d="m12.371-44.766v4.648" fill="none" stroke="#000" stroke-width=".5"/>
   <path d="m-16.488-40.006v4.508" fill="none" stroke="#000" stroke-width=".5"/>
   <path d="m-9.912-40.006v4.508" fill="none" stroke="#000" stroke-width=".5"/>
   <path d="m9.646-40.006v4.508" fill="none" stroke="#000" stroke-width=".5"/>
   <path d="m16.225-40.006v4.508" fill="none" stroke="#000" stroke-width=".5"/>
   <path d="m-19.749-40.068h13.119" fill="none" stroke="#000" stroke-width=".5"/>
   <path d="m13.303-6.402h2.551" fill="none" stroke="#000" stroke-width=".5"/>
   <path d="m-15.705-6.402h2.289" fill="none" stroke="#000" stroke-width=".5"/>
   <path d="m13.396-11.955h2.313" fill="none" stroke="#000" stroke-width=".5"/>
   <path d="m-15.653-11.955h2.313" fill="none" stroke="#000" stroke-width=".5"/>
   <path d="m-15.273 4.689c7e-3 1.184 1.02 2.137 2.26 2.129 1.23-6e-3 2.225-0.957 2.232-2.129h-2.246z" fill="none" stroke="#000" stroke-width=".5"/>
   <path d="m-10.067 4.689c7e-3 1.184 1.02 2.137 2.26 2.129 1.229-6e-3 2.225-0.957 2.232-2.129h-2.246z" fill="none" stroke="#000" stroke-width=".5"/>
   <path d="m10.795 4.689c8e-3 1.184 1.02 2.137 2.26 2.129 1.23-6e-3 2.225-0.957 2.232-2.129h-2.247z" fill="none" stroke="#000" stroke-width=".5"/>
   <path d="m5.551 4.689c7e-3 1.184 1.02 2.137 2.26 2.129 1.23-6e-3 2.225-0.957 2.232-2.129h-2.247z" fill="none" stroke="#000" stroke-width=".5"/>
   <path d="m0.345 4.689c8e-3 1.184 1.02 2.137 2.26 2.129 1.23-6e-3 2.225-0.957 2.232-2.129h-2.248z" fill="none" stroke="#000" stroke-width=".5"/>
   <path d="m-4.861 4.689c8e-3 1.184 1.02 2.137 2.26 2.129 1.229-6e-3 2.225-0.957 2.232-2.129h-2.247z" fill="none" stroke="#000" stroke-width=".5"/>
   <path d="m-24.175 2.891s-1.802 2.004-0.074 2.467c1.68 0.451 3.404-1.746 3.404-1.746" fill="none" stroke="#000" stroke-width=".5"/>
   <path d="m-20.167 3.865s-1.802 2.004-0.074 2.469c1.68 0.449 3.403-1.748 3.403-1.748" fill="none" stroke="#000" stroke-width=".5"/>
   <path d="m24.176 2.891s1.802 2.004 0.074 2.467c-1.68 0.451-3.404-1.746-3.404-1.746" fill="none" stroke="#000" stroke-width=".5"/>
   <path d="m20.166 3.865s1.802 2.004 0.074 2.469c-1.68 0.449-3.403-1.748-3.403-1.748" fill="none" stroke="#000" stroke-width=".5"/>
   <path d="m0.123-28.664v2.162" fill="none" stroke="#000" stroke-width=".5"/>
   <path d="m-6.4-42.379h2.561" fill="none" stroke="#000" stroke-width=".5"/>
   <path d="m-6.4-40.049h2.561" fill="none" stroke="#000" stroke-width=".5"/>
   <path d="m-6.39-33.055h2.743" fill="none" stroke="#000" stroke-width=".5"/>
   <path d="m-6.4-35.387h2.561" fill="none" stroke="#000" stroke-width=".5"/>
   <path d="m-6.4-37.717h2.561" fill="none" stroke="#000" stroke-width=".5"/>
   <path d="m-1.833-29.598-1.509 2.471" fill="none" stroke="#000" stroke-width=".5"/>
   <path d="m-3.071-31.189-2.721 1.467" fill="none" stroke="#000" stroke-width=".5"/>
   <path d="m6.396-42.379h-2.561" fill="none" stroke="#000" stroke-width=".5"/>
   <path d="m6.396-40.049h-2.561" fill="none" stroke="#000" stroke-width=".5"/>
   <path d="m6.396-33.055h-2.561" fill="none" stroke="#000" stroke-width=".5"/>
   <path d="m6.396-35.387h-2.561" fill="none" stroke="#000" stroke-width=".5"/>
   <path d="m6.396-37.717h-2.561" fill="none" stroke="#000" stroke-width=".5"/>
   <path d="m1.829-29.359 1.509 2.217" fill="none" stroke="#000" stroke-width=".5"/>
   <path d="m3.277-30.996 2.511 1.303" fill="none" stroke="#000" stroke-width=".5"/>
  </symbol>
  <g stroke="#000">
   <g fill="#eac102">
    <path d="m81.294 195.86c10.485 19.304 23.025 44.026 32.717 41.002 2.09-0.824 2.77-5.632-0.357-21.173l-18.951-35.121c-2.622-3.988-10.071-0.969-10.548 3.193z"/>
    <path d="m97.369 217.2 3.455-9.521c-7.005-8.472-17.831-23.918-29.427-43.12-2.397-3.974-10.611-1.629-8.652 2.785 15.653 27.864 26.777 42.524 34.625 49.853z"/>
    <path d="m628.8 195.86c-10.481 19.304-23.021 44.026-32.717 41.002-2.091-0.824-2.771-5.632 0.357-21.173l18.946-35.121c2.622-3.988 10.071-0.969 10.552 3.193z"/>
    <path d="m609.18 207.8 3.455 9.518c7.854-7.293 19.007-21.972 34.735-49.97 1.959-4.415-6.255-6.76-8.652-2.786-11.646 19.293-22.536 34.795-29.538 43.24z"/>
    <path d="m1.192 83.325 6.853-4.775c19.636-4.479 37.146 11.973 37.03 19.041 4.909-3.93 9.817-2.583 14.725-2.355-2.903 8.444-0.07 14.734-3.48 23.802 4.548 1.239 8.108 3.008 9.103 6.127l4.551-2.596 5.622-0.232c1.076 23.544-7.647 18.369-5.89 27.098l9.371-10.132 10.174 0.942c4.979 0.828 6.403 6.008 11.779 6.598-3.794 4.515-6.104 12.456-9.638 17.908-4.338 2.771-8.151 2.309-11.78 0.706 11.833 3.833 14.934 12.821 19.544 17.673-4.848 0.231-9.2 0.707-11.245 0.938 7.474 9.389 11.741 16.896 19.009 22.149l-4.284 0.707-22.221-9.661-18.741-16.966-23.024-31.339-0.803-49.48c-11.741-5.264-9.943-17.477-36.655-16.153z" stroke-linecap="round" stroke-linejoin="round"/>
    <path d="m0.482 83.623c31.975 2.938 31.953 42.724 38.329 66.23l20.445 30.467c12.929 11 21.287 24.68 29.285 26.293 7.747 1.563 7.21-1.348 15.09 0.297-15.428-6.036-8.364-19.975-40.425-28.426 10.368-5.056 10.367 8.871 31.132 4.907-5.695-12.536-17.937-13.141-23.465-17.789 8.472-2.409 9.402 2.384 15.566 0.204 6.845-2.421 5.266-11.753 10.687-17.994-7.096-2.755-12.864-10.963-21.606-6.952-3.039 2.222-7.512 9.701-12.546 11.45-2.118-9.987 5.003-10.884 6.505-15.949 1.488-5.019-0.89-6.543 0.464-13.695-23.033 7.479-14.34 21.013-24.863 26.938-0.108-14.377 4.512-8.263 13.015-24.08-3.21-4.204-5.473-3.41-8.131-4.703 4.224-8.029 0.403-12.925 4.878-24.128-8.458-2.482-11.336 1.547-13.708 4.094-0.86-6.963-19.351-29.44-40.652-17.164z" stroke-linejoin="round"/>
   </g>
   <path d="m46.222 110.59c-6.816 13.432-6.132 26.862-5.635 40.293m16.552-7.129c-1.372 6.749-6.212 10.439-11.269 13.948m35.216-4.029c-12.149 0.793-13.038 7.61-30.99 9.918m3.521 4.339c8.701 1.537 17.301 3.163 23.243 7.129m-18.664 2.479c11.85 12.585 21.793 13.717 25.355 20.146" fill="none"/>
   <path d="m57.663 176.77c-0.103 0.064-0.174 0.156-0.28 0.218-6.003 3.479-14.817 1.009-19.688-5.51-4.871-6.516-3.959-14.617 2.043-18.093 0.106-0.062 0.23-0.083 0.338-0.141z" fill="#fff"/>
   <g fill="#eac102">
    <path d="m39.801 150.35-3.27 1.896 20.593 27.549 3.27-1.896c-6.795-11.308-14.168-21.535-20.593-27.549z"/>
    <path d="m708.87 83.325-6.854-4.775c-19.636-4.479-37.146 11.973-37.026 19.041-4.908-3.93-9.816-2.583-14.729-2.355 2.903 8.444 0.07 14.734 3.48 23.802-4.548 1.239-8.107 3.008-9.104 6.127l-4.552-2.596-5.622-0.232c-1.075 23.544 7.647 18.369 5.891 27.098l-9.367-10.132-10.178 0.942c-4.979 0.828-6.398 6.008-11.775 6.598 3.795 4.515 6.104 12.456 9.638 17.908 4.339 2.771 8.152 2.309 11.78 0.706-11.832 3.833-14.937 12.821-19.544 17.673 4.848 0.231 9.197 0.707 11.245 0.938-7.478 9.389-11.741 16.896-19.013 22.149l4.283 0.707 22.223-9.661 18.739-16.966 23.024-31.339 0.804-49.48c11.743-5.264 9.946-17.477 36.657-16.153z" stroke-linecap="round" stroke-linejoin="round"/>
    <path d="m709.58 83.623c-31.979 2.938-31.953 42.724-38.328 66.23l-20.445 30.467c-12.929 10.996-21.287 24.68-29.284 26.289-7.743 1.563-7.209-1.348-15.091 0.293 15.433-6.032 8.364-19.971 40.43-28.422-10.368-5.056-10.367 8.871-31.137 4.907 5.695-12.536 17.938-13.141 23.469-17.789-8.476-2.409-9.401 2.384-15.565 0.204-6.846-2.421-5.267-11.753-10.688-17.994 7.098-2.755 12.862-10.963 21.604-6.952 3.039 2.222 7.513 9.701 12.546 11.45 2.118-9.987-5.003-10.884-6.505-15.949-1.487-5.019 0.89-6.543-0.464-13.695 23.032 7.479 14.34 21.013 24.862 26.938 0.104-14.377-4.516-8.263-13.018-24.08 3.209-4.204 5.477-3.41 8.131-4.703-4.224-8.029-0.399-12.925-4.879-24.128 8.458-2.482 11.337 1.547 13.708 4.09 0.862-6.955 19.353-29.432 40.654-17.156z" stroke-linejoin="round"/>
   </g>
   <path d="m663.84 110.59c6.816 13.432 6.132 26.862 5.635 40.293m-16.552-7.129c1.371 6.749 6.212 10.439 11.271 13.948m-35.218-4.029c12.149 0.793 13.038 7.61 30.99 9.918m-3.522 4.339c-8.7 1.537-17.305 3.163-23.243 7.129m18.665 2.479c-11.854 12.585-21.794 13.717-25.355 20.146" fill="none"/>
   <path d="m652.4 176.77c0.104 0.064 0.174 0.156 0.276 0.218 6.003 3.479 14.816 1.009 19.688-5.51 4.87-6.516 3.959-14.617-2.044-18.093-0.105-0.062-0.23-0.083-0.339-0.141z" fill="#fff"/>
   <g fill="#eac102">
    <path d="m670.26 150.35 3.271 1.896-20.595 27.549-3.271-1.896c6.797-11.308 14.17-21.535 20.595-27.549z"/>
    <path d="m355.07 124.18c-1.768 0.021-3.554 1.124-3.613 3.231-1.627 20.857-10.245 53.378-42.23 59.267-31.725 5.841-59.697-38.559-60.882-56.214 0.017-2.636-2.135-3.658-4.311-3.545-2.465 0.129-4.968 1.715-4.358 4.052 4.732 24.104-0.222 54.808-22.185 60.294-21.872 5.465-45.767-20.18-62.8-52.146-1.578-6.044-10.659-3.68-8.921 0.76 13.88 33.235 9.19 56.628-0.808 61.561-12.143 3.666-37.471-25.593-51.691-51.387-2.418-3.49-11.323-1.678-9.207 2.8 10.35 19.815 20.627 39.627 21.108 59.773-1.188-1.168-2.724-2.912-4.405-4.945l-3.455 9.521c8.344 7.793 12.982 7.29 15.308 5.229 4.653-4.125 4.746-12.656-1.49-31.666 11.478 11.479 29.521 25.556 41.138 17.799 11.617-7.756 12.687-21.736 11.631-38.667 14.21 17.482 35.818 35.521 55.209 31.041 19.646-4.537 28.221-21.688 30.854-43.508 10.825 19.775 33.135 42.385 60.629 38.921 26.414-3.327 41.587-32.52 44.418-42.122 2.831 9.604 18.021 38.794 44.435 42.122 27.493 3.463 49.786-19.146 60.612-38.921 2.632 21.817 11.207 38.971 30.854 43.508 19.391 4.479 40.998-13.558 55.209-31.041-1.06 16.93 0.015 30.91 11.631 38.667 11.617 7.757 29.66-6.318 41.138-17.799-6.231 19.01-6.143 27.541-1.489 31.666 2.315 2.052 6.929 2.572 15.197-5.108l-3.455-9.519c-1.64 1.979-3.13 3.681-4.294 4.826 0.48-20.146 10.758-39.957 21.107-59.773 2.117-4.478-6.772-6.29-9.19-2.8-14.221 25.794-39.548 55.053-51.688 51.387-9.998-4.933-14.703-28.321-0.823-61.561 1.737-4.438-7.345-6.804-8.922-0.76-17.034 31.967-40.912 57.607-62.784 52.146-21.963-5.484-26.932-36.188-22.2-60.294 1.147-4.396-8.688-6.129-8.651-0.507-1.186 17.655-29.174 62.055-60.896 56.214-31.984-5.889-40.587-38.405-42.215-59.267 0.015-2.193-1.735-3.253-3.502-3.231z"/>
    <path d="m295.36 70.606s14.666-2.652 22.595 9.373c7.791 11.821 26.796 10.584 26.796 10.584l-8.039 26.608-51.806-19.956c-0.36 0 3.179-5.021 9.825-4.536s10.411 9.198 20.543 5.141z"/>
    <path d="m414.71 70.606s-14.666-2.652-22.596 9.373c-7.791 11.821-26.797 10.584-26.797 10.584l8.039 26.608 51.807-19.956c0.356 0-3.179-5.021-9.824-4.536-6.646 0.485-10.412 9.198-20.544 5.141z"/>
    <path d="m354.93 0.625c-8.913 9.774-17.998 20.768-18.489 35.21-7.146-7.564-14.295-2.274-21.441-0.919 3.59 4.908-0.102 18.354 4.761 27.525-5.202 0.415-7.55 5.077-10.713 7.854 2.129 8.045 26.432 9.184 30.662 23.887-26.459-2.681-18.08-22.12-44.659-23.581-4.249 22.23 12.678 17.83 13.997 29.931-8.082 1.539-10.1-6.751-17.14-6.411-9.868 0.472-14.138 11.432-20.378 15.184 9.619 2.661 13.232 11.964 22.885 14.215 5.217 1.218 7.673-8.148 15.823-3.933-7.993 11.257-15.966 7.95-11.919 23.887 30.253 2.712 17.889-18.225 38.121-15.118-30.559 19.096-13.77 26.354-21.441 41.133 15.743-6.519 21.405-2.059 40.057-15.635 18.652 13.576 24.314 9.116 40.057 15.635-7.672-14.777 9.117-22.037-21.44-41.133 20.229-3.104 7.867 17.83 38.12 15.118 4.047-15.938-3.926-12.63-11.919-23.887 8.149-4.223 10.606 5.146 15.821 3.933 9.65-2.252 13.268-11.555 22.887-14.215-6.239-3.752-10.51-14.712-20.378-15.184-7.039-0.341-9.058 7.95-17.14 6.411 1.315-12.101 18.246-7.696 13.996-29.931-26.578 1.461-18.199 20.9-44.658 23.581 4.229-14.703 28.531-15.842 30.662-23.887-3.164-2.772-5.512-7.438-10.713-7.854 4.86-9.172 1.172-22.621 4.762-27.525-7.146-1.355-14.295-6.646-21.44 0.919-0.491-14.442-9.577-25.436-18.49-35.21l-0.127-0.129z"/>
   </g>
   <g stroke-linecap="round">
    <path d="m355.24 95.996c-0.921-1.688 0-81.373 0-81.373m-4.83 109.89c-2.387 9.557-10.878 24.854-20.839 30.279m10.459-38.858c-7.903 0.407-22.528 8.48-28.377 12.271m26.995-15.913c-27.938 2.578-39.339-8.882-47.981-5.313m49.138-2.946s-6.859-2.031-14.903-4.27c-5.169-1.436-8.299-7.861-11.598-11.393m38.105 5.895s-0.414-5.313-6.673-20.203c-6.066-14.431-13.953-22.128-13.953-22.128m28.877 72.579c2.388 9.557 10.878 24.854 20.839 30.279m-10.459-38.858c7.902 0.407 22.527 8.48 28.377 12.271m-26.995-15.913c27.938 2.578 39.339-8.882 47.981-5.313m-49.138-2.946s6.859-2.031 14.904-4.27c5.168-1.436 8.299-7.861 11.598-11.393m-38.106 5.895s0.412-5.313 6.672-20.203c6.066-14.431 13.953-22.128 13.953-22.128" fill="none"/>
    <path d="m373.88 110.06c0.02 9.604-8.184 17.401-18.318 17.419-10.136 0.021-18.368-7.753-18.386-17.354v-0.063c-0.019-9.602 8.183-17.396 18.319-17.418 10.136-0.018 18.367 7.753 18.386 17.355-1e-3 0.019-1e-3 0.04-1e-3 0.061z" fill="#eac102" stroke-linejoin="round"/>
    <path d="m370.12 110.07c0.015 7.631-6.506 13.829-14.563 13.847-8.062 0.014-14.604-6.161-14.621-13.793v-0.054c-0.015-7.632 6.505-13.829 14.563-13.844 8.062-0.014 14.604 6.162 14.616 13.793 5e-3 0.016 5e-3 0.034 5e-3 0.051z" fill="#fff" stroke-linejoin="round"/>
   </g>
   <g fill="#eac102">
    <path d="m354.78 194.57c-73.115 0.727-147.07 0.79-218.88 15.278-16.025 4.784-38.934 7.456-44.95 24.401-1.974 14.15 16.145 20.148 27.462 24.042 53.914 15.309 110.88 16.604 166.74 18.997 86.907 1.646 174.37 2.314 260.64-9.112 23.563-4.311 49.516-6.964 68.895-21.472 11.572-10.725-1.233-25.717-14.025-28.8-43.883-15.926-91.744-17.636-138.16-20.878-35.869-1.852-71.805-2.438-107.72-2.461z"/>
    <path d="m355.01 211.96c-39.853 0-73.461 0.729-101.78 2.01-5.666 0.256-11.135 0.54-16.387 0.835-62.989 3.54-96.764 9.799-114.87 15.521-1.509 0.477-2.939 0.937-4.238 1.399-6.473 2.33-10.453 4.563-12.875 6.373-0.476 0.356-0.886 0.699-1.251 1.024-0.378 0.338-0.694 0.646-0.969 0.948-1.618 1.771-1.574 2.846-1.574 2.846l13.763 47.002h480.36l13.763-47.002s0.045-1.075-1.574-2.846c-0.271-0.304-0.59-0.61-0.969-0.948-2.214-1.982-6.356-4.604-14.125-7.397-0.011-4e-3 -0.029 4e-3 -0.04 0-16.883-6.066-50.822-13.084-119.06-16.919-0.013-1e-3 -0.023 0-0.04 0-5.252-0.295-10.681-0.58-16.346-0.835-28.327-1.272-61.933-2.011-101.78-2.011z"/>
    <path d="m468.81 235.02c0.063 9.271-7.262 16.83-16.354 16.896-9.093 0.062-16.513-7.401-16.572-16.669-1e-3 -0.074-1e-3 -0.148 0-0.227-0.061-9.269 7.265-16.831 16.354-16.893 9.093-0.063 16.513 7.397 16.571 16.669 1e-3 0.074 1e-3 0.149 1e-3 0.224z" stroke-linecap="round" stroke-linejoin="round"/>
    <path d="m470.18 235.02c0.063 9.271-7.098 16.83-15.98 16.896-8.887 0.062-16.144-7.401-16.198-16.669-1e-3 -0.074-1e-3 -0.148 0-0.227-0.06-9.269 7.098-16.831 15.984-16.893 8.886-0.063 16.14 7.397 16.194 16.669 1e-3 0.074 1e-3 0.149 0 0.224z" stroke-linecap="round" stroke-linejoin="round"/>
   </g>
   <g stroke-linecap="round" stroke-linejoin="round">
    <path d="m468.68 235.04c0.057 8.017-6.274 14.559-14.142 14.608-7.862 0.057-14.278-6.398-14.331-14.419v-0.189c-0.052-8.021 6.279-14.562 14.143-14.611 7.862-0.054 14.278 6.402 14.33 14.419 1e-3 0.064 1e-3 0.129 0 0.192z" fill="#fff"/>
    <path d="m241.24 235.02c-0.061 9.271 7.261 16.83 16.354 16.896 9.092 0.062 16.512-7.401 16.572-16.669v-0.227c0.06-9.269-7.261-16.831-16.354-16.893-9.093-0.063-16.512 7.397-16.572 16.669-1e-3 0.074-1e-3 0.149 0 0.224z" fill="#eac102"/>
    <path d="m239.87 235.02c-0.059 9.271 7.098 16.83 15.985 16.896 8.887 0.062 16.14-7.401 16.198-16.669v-0.227c0.059-9.269-7.097-16.831-15.984-16.893-8.887-0.063-16.14 7.397-16.199 16.669-1e-3 0.074-1e-3 0.149 0 0.224z" fill="#eac102"/>
    <path d="m241.38 235.04c-0.052 8.017 6.279 14.559 14.142 14.608 7.863 0.057 14.279-6.398 14.331-14.419v-0.189c0.052-8.021-6.279-14.562-14.142-14.611-7.863-0.054-14.279 6.402-14.331 14.419v0.192z" fill="#fff"/>
   </g>
   <g fill="none" stroke-linecap="round" stroke-linejoin="round">
    <path d="m205.78 236.89-26.367-12.593-1.689 0.304 25.147 12.813z"/>
    <path d="m205.78 236.89-26.367 22.088-1.689 0.308 25.147-21.868z"/>
    <path d="m177.68 259.23-23.68-12.569 23.626-21.95"/>
   </g>
   <path d="m196.36 238.77-18.919 16.834-18.642-10.16 18.735-16.53z" fill="#008f4c" stroke-linecap="round" stroke-linejoin="round"/>
   <g fill="none" stroke-linecap="round" stroke-linejoin="round">
    <path d="m183.6 241.11-10.008 8.874-9.861-5.344 9.91-8.716z"/>
    <path d="m177.52 255.5-3.922-5.521"/>
    <path d="m159.06 245.4 4.73-0.784"/>
    <path d="m183.6 241.07 12.367-2.227"/>
    <path d="m173.6 236 3.899-7.083"/>
    <path d="m504.21 236.89 26.366-12.593 1.688 0.304-25.146 12.813z"/>
    <path d="m504.21 236.89 26.366 22.088 1.688 0.308-25.146-21.868z"/>
    <path d="m532.3 259.23 23.684-12.569-23.626-21.95"/>
   </g>
   <path d="m513.63 238.77 18.92 16.834 18.642-10.16-18.73-16.53z" fill="#008f4c" stroke-linecap="round" stroke-linejoin="round"/>
   <g fill="none" stroke-linecap="round" stroke-linejoin="round">
    <path d="m526.39 241.11 10.012 8.874 9.857-5.344-9.909-8.716z"/>
    <path d="m532.46 255.5 3.922-5.521"/>
    <path d="m550.93 245.4-4.729-0.784"/>
    <path d="m526.39 241.07-12.362-2.227"/>
    <path d="m536.38 236-3.896-7.083"/>
   </g>
   <path d="m338.39 216.05h33.264c9.613 0 17.408 7.634 17.408 17.05s-7.795 17.05-17.408 17.05h-33.264c-9.614 0-17.408-7.634-17.408-17.05-1e-3 -9.416 7.793-17.05 17.408-17.05z" fill="#eac102"/>
   <path d="m340.07 218.38h29.928c8.65 0 15.664 6.592 15.664 14.724 0 8.131-7.014 14.723-15.664 14.723h-29.928c-8.651 0-15.665-6.592-15.665-14.723 1e-3 -8.132 7.014-14.724 15.665-14.724z" fill="#ed1c24"/>
   <path d="m99.735 208.07-3.487 7.24c0.844 0.847 1.733 1.665 2.652 2.476l2.309-8.602c-0.383-0.504-0.966-1.197-1.474-1.114zm510.62-0.023c-0.632 0.011-0.66 0.029-1.738 1.354l2.695 8.237c0.698-0.598 1.404-1.267 2.092-1.96z" fill="#eac102"/>
   <path d="m113.96 281.43c-0.128 0.043-0.232 0.126-0.363 0.165-7.389 2.216-15.732-2.938-18.639-11.503-2.907-8.563 0.72-17.308 8.108-19.523 0.13-0.035 0.266-0.024 0.397-0.063z" fill="#ed1c24"/>
   <g fill="#eac102">
    <path d="m104.13 247.22-4.025 1.207 12.292 36.213 4.025-1.207c-3.323-14.411-7.604-27.781-12.292-36.213z"/>
    <path d="m125.92 233.95c3.805 0.079 8.696 6.908 11.294 16.027 2.599 9.118 1.992 17.314-1.26 19.172l-0.137 0.071c-0.194 0.098-0.393 0.173-0.604 0.226l-6.371 1.595-2.887-10.128c-1.088-2.188-2.06-4.678-2.832-7.387s-1.258-5.337-1.479-7.738l-2.86-10.033z" stroke-linecap="round" stroke-linejoin="round"/>
    <path d="m117.13 255.14c2.746 9.729 8.144 16.873 12.056 15.956s4.857-9.548 2.111-19.276c-0.022-0.073-0.043-0.15-0.066-0.229-2.746-9.729-8.144-16.872-12.056-15.955s-4.857 9.548-2.112 19.276c0.023 0.075 0.045 0.152 0.067 0.228z" stroke-linecap="round" stroke-linejoin="round"/>
   </g>
   <path d="m119 237.94c-13.544 8.018-6.019 30.896 9.122 31.997 9.051-4.333-0.822-33.934-9.122-31.997z" fill="#fff" stroke-linecap="round" stroke-linejoin="round"/>
   <path d="m596.04 281.43c0.129 0.043 0.232 0.126 0.363 0.165 7.389 2.216 15.729-2.938 18.639-11.503 2.907-8.563-0.719-17.308-8.108-19.523-0.13-0.035-0.266-0.024-0.396-0.063z" fill="#ed1c24"/>
   <g fill="#eac102">
    <path d="m605.87 247.22 4.021 1.207-12.288 36.213-4.021-1.207c3.319-14.411 7.6-27.781 12.288-36.213z"/>
    <path d="m584.1 233.95c-3.805 0.079-8.691 6.908-11.295 16.027-2.599 9.118-1.987 17.314 1.265 19.172l0.137 0.071c0.193 0.098 0.393 0.173 0.604 0.226l6.369 1.595 2.892-10.128c1.088-2.188 2.06-4.678 2.832-7.387 0.771-2.709 1.259-5.337 1.479-7.738l2.86-10.033z" stroke-linecap="round" stroke-linejoin="round"/>
    <path d="m592.89 255.14c-2.746 9.729-8.144 16.873-12.056 15.956-3.913-0.917-4.858-9.548-2.112-19.276 0.022-0.073 0.044-0.15 0.066-0.229 2.746-9.729 8.144-16.872 12.056-15.955s4.857 9.548 2.111 19.276c-0.021 0.075-0.043 0.152-0.065 0.228z" stroke-linecap="round" stroke-linejoin="round"/>
   </g>
   <path d="m591.02 237.94c13.544 8.018 6.021 30.896-9.117 31.997-9.056-4.333 0.816-33.934 9.117-31.997z" fill="#fff" stroke-linecap="round" stroke-linejoin="round"/>
   <path d="m133.45 291.99s47.864-22.858 221.52-22.858c173.08 0 221.52 22.858 221.52 22.858s-40.486 22.862-221.52 22.862c-181.61 1e-3 -221.52-22.862-221.52-22.862z" fill="#eac102"/>
   <path d="m298.6 317v-50m-10.24 50v-50m-9.64 50v-50m-9.52 50v-50m-8.45 50v-50m-16.35 50v-50m7.84 50v-50m-22.54 50v-50m7.3 50v-50m-27.5 50v-50m6.65 50v-50m6.85 50v-50m-20.5 50v-50m-6.5 50v-50m-7 50v-50m-14.5 50v-50m7.5 50v-50m-14.8 50v-50m-6.7 35v-20m-7.5 20v-20m-7.5 20v-20m-8 20v-20m201.5 35v-50m-17 50v-50m-12.75 50v-50m102.05 50v-50m10.2 50v-50m9.5 50v-50m9.6 50v-50m8.4 50v-50m16.4 50v-50m-7.74 50v-50m22.54 50v-50m-7.4 50v-50m27.5 50v-50m-6.5 50v-50m-6.8 50v-50m20.4 50v-50m6.5 50v-50m7.1 50v-50m14.5 50v-50m-7.5 50v-50m14.7 50v-50m6.7 35v-20m7.4 20v-20m7.6 20v-20m8 20v-20m-201.6 35v-50m17.2 50v-50m12.66 50v-50" fill="none"/>
   <path d="m354.72 253.43c-67.382 0.666-135.53 0.736-201.71 14.09-14.768 4.409-35.892 6.863-41.435 22.481-1.818 13.039 14.863 18.576 25.292 22.161 49.686 14.107 102.21 15.313 153.68 17.52 80.092 1.52 160.67 2.105 240.17-8.426 21.718-3.973 45.632-6.423 63.492-19.789 10.663-9.881-1.118-23.694-12.907-26.536-40.438-14.679-84.546-16.24-127.32-19.23-33.056-1.702-66.17-2.251-99.271-2.271zm0.186 15.697c173.08 0 221.53 22.862 221.53 22.862s-40.498 22.865-221.53 22.865c-181.61 0-221.49-22.865-221.49-22.865s47.841-22.862 221.49-22.862z" fill="#eac102"/>
   <path d="m547.29 148.05c4.138 2.453 8.746 3.959 14.477 4.77-1.129 2.724-3.813 0.95-4.058 3.43-0.245 2.477-12.053-0.869-10.219-3.153 1.833-2.288-1.59-2.398-0.2-5.047z" fill="#eac102"/>
   <path d="m557.97 154.98c-3.297-0.418-6.998-1.56-9.715-3.271" fill="none"/>
   <path d="m159.3 141.02c-4.138 2.453-8.746 3.959-14.477 4.771 1.128 2.72 3.814 0.946 4.058 3.427 0.244 2.476 12.053-0.869 10.219-3.153-1.834-2.286 1.589-2.397 0.2-5.045z" fill="#eac102"/>
   <path d="m101.3 100.57c-19.704 26.146 15.872 54.958 46.965 41.692 14.09-15.85-32.209-52.997-46.965-41.692z" fill="#fff" stroke-linecap="round" stroke-linejoin="round"/>
   <path d="m148.61 147.95c3.297-0.417 6.999-1.563 9.715-3.271" fill="none"/>
   <g fill="#fff" stroke-linecap="round" stroke-linejoin="round">
    <path d="m98.078 87.892c8.734 15.258 26.104 21.178 38.796 13.223 12.692-7.951 15.9-26.771 7.166-42.026-0.07-0.123-0.141-0.244-0.212-0.366-8.735-15.258-26.105-21.178-38.797-13.223-12.692 7.954-15.9 26.771-7.166 42.026 0.071 0.122 0.141 0.244 0.213 0.366z"/>
    <path d="m186.55 104.11c4.687 16.493-3.727 33.021-18.794 36.907-15.066 3.894-31.08-6.327-35.767-22.82-0.038-0.132-0.074-0.265-0.11-0.396-4.687-16.492 3.727-33.016 18.794-36.906 15.066-3.89 31.08 6.327 35.767 22.819 0.037 0.131 0.074 0.264 0.11 0.396z"/>
    <path d="m605.56 106.2c21.966 24.467-10.919 56.031-43.083 45.313-15.451-14.658 27.372-55.391 43.083-45.313z"/>
    <path d="m610.8 95.121c-8.734 15.258-26.104 21.178-38.797 13.223s-15.9-26.772-7.166-42.03c0.07-0.123 0.141-0.244 0.213-0.366 8.734-15.258 26.104-21.178 38.796-13.223 12.692 7.954 15.9 26.772 7.166 42.03-0.071 0.122-0.141 0.244-0.212 0.366z"/>
    <path d="m522.24 111.36c-4.688 16.493 3.728 33.021 18.794 36.906 15.063 3.891 31.08-6.326 35.768-22.819 0.037-0.133 0.074-0.265 0.11-0.396 4.687-16.493-3.729-33.017-18.794-36.906-15.066-3.889-31.08 6.326-35.771 22.819-0.034 0.131-0.071 0.263-0.107 0.396z"/>
   </g>
  </g>
  <path d="m105.55 304.03v350.19c0 137.67 111.61 249.29 249.29 249.29 137.67 0 249.29-111.62 249.29-249.29v-350.19z" fill="#ed1c24" stroke="#000" stroke-width="3"/>
  <path d="m188.87 404.53v233.23c0 91.69 74.332 166.03 166.03 166.03 91.69 0 166.03-74.336 166.03-166.03v-233.23z" fill="#fff" stroke="#000"/>
  <use transform="matrix(1,0,0,-1,148.6,366.75)" x="-29.194" y="-45.014999" width="58.389" height="90.029999" xlink:href="#elm2"/>
  <use transform="matrix(1,0,0,-1,561.4,366.75)" x="-29.194" y="-45.014999" width="58.389" height="90.029999" xlink:href="#elm2"/>
  <use transform="matrix(1,0,0,-1,148.6,592.88)" x="-29.194" y="-45.014999" width="58.389" height="90.029999" xlink:href="#elm2"/>
  <use transform="matrix(1,0,0,-1,561.4,592.88)" x="-29.194" y="-45.014999" width="58.389" height="90.029999" xlink:href="#elm2"/>
  <use transform="matrix(1,0,0,-1,197.9,776.25)" x="-29.194" y="-45.014999" width="58.389" height="90.029999" xlink:href="#elm2"/>
  <use transform="matrix(1,0,0,-1,512.1,776.25)" x="-29.194" y="-45.014999" width="58.389" height="90.029999" xlink:href="#elm2"/>
  <use transform="matrix(1,0,0,-1,355,851.88)" x="-29.194" y="-45.014999" width="58.389" height="90.029999" xlink:href="#elm2"/>
  <use transform="matrix(1,0,0,-1,355,603.3)" x="-41.667" y="-49.998001" width="83.334" height="99.997002" xlink:href="#elm1"/>
  <use transform="matrix(1,0,0,-1,249,603.3)" x="-41.667" y="-49.998001" width="83.334" height="99.997002" xlink:href="#elm1"/>
  <use transform="matrix(1,0,0,-1,461,603.3)" x="-41.667" y="-49.998001" width="83.334" height="99.997002" xlink:href="#elm1"/>
  <use transform="matrix(1,0,0,-1,355,478.4)" x="-41.667" y="-49.998001" width="83.334" height="99.997002" xlink:href="#elm1"/>
  <use transform="matrix(1,0,0,-1,355,728.2)" x="-41.667" y="-49.998001" width="83.334" height="99.997002" xlink:href="#elm1"/>
 </g>
</svg>
