<?xml version="1.0" encoding="UTF-8" standalone="no"?>
<!-- Creator: CorelDRAW -->
<svg
   xmlns:dc="http://purl.org/dc/elements/1.1/"
   xmlns:cc="http://web.resource.org/cc/"
   xmlns:rdf="http://www.w3.org/1999/02/22-rdf-syntax-ns#"
   xmlns:svg="http://www.w3.org/2000/svg"
   xmlns="http://www.w3.org/2000/svg"
   xmlns:sodipodi="http://sodipodi.sourceforge.net/DTD/sodipodi-0.dtd"
   xmlns:inkscape="http://www.inkscape.org/namespaces/inkscape"
   xml:space="preserve"
   width="900"
   height="600"
   style="shape-rendering:geometricPrecision; text-rendering:geometricPrecision; image-rendering:optimizeQuality; fill-rule:evenodd; clip-rule:evenodd"
   viewBox="0 0 41.3476 27.5651"
   id="svg2"
   sodipodi:version="0.32"
   inkscape:version="0.44"
   sodipodi:docname="Flag_of_Asturias_(indoor).svg"
   sodipodi:docbase="C:\Documents and Settings\Fam. Ventocilla\Mis documentos\{70443084}"
   version="1.0"><metadata
   id="metadata25"><rdf:RDF><cc:Work
       rdf:about=""><dc:format>image/svg+xml</dc:format><dc:type
         rdf:resource="http://purl.org/dc/dcmitype/StillImage" /></cc:Work></rdf:RDF></metadata><sodipodi:namedview
   inkscape:window-height="712"
   inkscape:window-width="1024"
   inkscape:pageshadow="2"
   inkscape:pageopacity="0.0"
   guidetolerance="10.0"
   gridtolerance="10.0"
   objecttolerance="10.0"
   borderopacity="1.0"
   bordercolor="#666666"
   pagecolor="#ffffff"
   id="base"
   inkscape:zoom="0.62695495"
   inkscape:cx="399.83686"
   inkscape:cy="286.27556"
   inkscape:window-x="-4"
   inkscape:window-y="-4"
   inkscape:current-layer="Capa_x0020_1"
   showguides="true"
   inkscape:guide-bbox="true"
   width="900px"
   height="600px" />
 <defs
   id="defs4">
  <style
   type="text/css"
   id="style6">
   
    .fil0 {fill:#0066FF}
    .fil1 {fill:yellow}
   
  </style>
 
 <style
   id="style3714"
   type="text/css">
   
    .fil0 {fill:#0066FF}
    .fil1 {fill:yellow}
   
  </style>
  </defs>
 <g
   id="Capa_x0020_1">
  <metadata
   id="CorelCorpID_0Corel-Layer" />
  
  
  
  
  
  
  
 <polygon
   class="fil0"
   points="0,0 41.3476,0 41.3476,27.5651 0,27.5651 0,0 "
   id="polygon10"
   style="fill:#06f;fill-opacity:1;fill-rule:evenodd"
   transform="translate(-2.5e-5,0)" /><path
   style="fill:#f7d417;fill-opacity:1;fill-rule:evenodd"
   d="M 16.748478,14.298844 L 16.845782,14.517642 L 16.160607,15.749394 L 15.953839,15.9844 L 16.62685,15.9844 L 16.517384,15.721032 L 16.647122,15.486026 L 17.113364,15.899312 L 17.575553,15.486026 L 17.70529,15.721032 L 17.595824,15.9844 L 18.268835,15.9844 L 18.066121,15.749394 L 17.376893,14.517642 L 17.47825,14.298844 L 16.748478,14.298844 z M 17.113364,14.655404 L 17.405273,15.18214 L 17.113364,15.445508 L 16.817402,15.18214 L 17.113364,14.655404 z "
   id="polygon12" /><path
   class="fil1"
   d="M 19.414351,13.648356 C 19.532126,13.863639 19.698077,14.045385 19.896161,14.176825 L 19.818518,21.472162 C 19.729015,21.488746 19.132188,22.097384 19.106491,22.199191 C 19.09578,22.249498 19.087735,22.302652 19.087735,22.352958 C 19.087735,22.694122 19.352752,22.970922 19.682033,22.970922 C 19.853317,22.970922 20.019314,22.892637 20.131757,22.755638 C 20.281664,22.89544 20.474369,22.970922 20.672454,22.970922 C 20.873251,22.970922 21.065956,22.895439 21.213197,22.755638 C 21.32564,22.892637 21.491591,22.970922 21.662921,22.970922 C 21.992156,22.970922 22.257173,22.694122 22.257173,22.352958 C 22.257173,22.302652 22.25184,22.249497 22.238463,22.201993 C 22.223615,22.139099 21.59608,21.485071 21.52639,21.472161 L 21.448747,14.176824 C 21.649543,14.042628 21.815495,13.860836 21.93327,13.648355 L 25.996817,13.614771 C 26.026284,13.865017 26.531492,14.537559 26.781155,14.537559 C 27.046125,14.537559 27.260297,14.311066 27.260297,14.037023 C 27.260297,13.874848 27.188033,13.726639 27.062214,13.631586 C 26.952438,13.547697 27.008659,13.365905 27.145189,13.365905 C 27.193366,13.365905 27.238876,13.391081 27.265631,13.435829 C 27.308475,13.446992 27.351319,13.452597 27.394162,13.452597 C 27.586868,13.452597 27.758197,13.33517 27.835841,13.153424 C 27.867928,13.072337 27.886683,12.985645 27.886683,12.898952 C 27.886683,12.81226 27.867928,12.72837 27.835841,12.647283 C 27.758198,12.465536 27.586868,12.345308 27.394162,12.345308 C 27.351319,12.345308 27.308474,12.353715 27.265631,12.364879 C 27.1907,12.490714 27.005994,12.434802 27.005994,12.286594 C 27.005994,12.241846 27.027416,12.197099 27.062215,12.169121 C 27.188034,12.074067 27.260299,11.923056 27.260299,11.763684 C 27.260299,11.486885 27.046125,11.263148 26.781155,11.263148 C 26.531862,11.263148 26.026193,11.936426 25.996818,12.185936 L 21.93327,12.152352 C 21.804785,11.917497 21.620077,11.721739 21.395239,11.587543 L 21.357773,6.5654982 C 21.584956,6.5363255 22.238464,5.983415 22.238464,5.7462176 C 22.238464,5.4721745 22.02429,5.2456812 21.759274,5.2456812 C 21.6067,5.2456812 21.462171,5.3240121 21.373817,5.4526034 C 21.293508,5.5672745 21.119512,5.5085607 21.119512,5.365957 C 21.119512,5.3156048 21.1436,5.268055 21.183778,5.2429252 C 21.197155,5.1981778 21.202488,5.150628 21.202488,5.1058809 C 21.202488,4.9073659 21.090045,4.7256207 20.91605,4.6472895 C 20.838453,4.6109496 20.755431,4.5941809 20.672455,4.5941809 C 20.58948,4.5941809 20.506504,4.6109496 20.431528,4.6472895 C 20.254866,4.7256203 20.142423,4.9073666 20.142423,5.1058809 C 20.142423,5.1534307 20.147802,5.1981781 20.161179,5.2429252 C 20.201357,5.2680554 20.228111,5.3156052 20.228111,5.365957 C 20.228111,5.4470446 20.163845,5.5141191 20.086249,5.5141191 C 20.040738,5.5141191 20.000561,5.4917917 19.973806,5.452603 C 19.882786,5.3240121 19.738256,5.2456808 19.585636,5.2456808 C 19.32062,5.2456808 19.106493,5.4721741 19.106493,5.7462173 C 19.106493,6.0063855 19.751036,6.5386679 19.98985,6.5654982 L 19.949718,11.587542 C 19.727546,11.721739 19.542839,11.914695 19.414354,12.149549 L 15.348134,12.185935 C 15.320414,11.950437 14.789003,11.263147 14.563797,11.263147 C 14.29878,11.263147 14.084653,11.486884 14.084653,11.763684 C 14.084653,11.923056 14.159585,12.074067 14.282737,12.16912 C 14.317537,12.197098 14.338958,12.241846 14.338958,12.286593 C 14.338958,12.36768 14.277359,12.434801 14.199762,12.434801 C 14.151539,12.434801 14.106075,12.409625 14.081941,12.364878 C 14.039143,12.353714 13.993633,12.345306 13.950789,12.345306 C 13.76075,12.345306 13.586754,12.465536 13.511777,12.647282 C 13.476978,12.725566 13.460935,12.812259 13.460935,12.898951 C 13.460935,12.988446 13.476978,13.072335 13.511777,13.153423 C 13.586754,13.335169 13.76075,13.452596 13.950789,13.452596 C 13.993633,13.452596 14.039143,13.446991 14.081941,13.433025 C 14.156918,13.309993 14.338958,13.365904 14.338958,13.51131 C 14.338958,13.55886 14.317537,13.603607 14.282737,13.631586 C 14.159584,13.723837 14.084653,13.874848 14.084653,14.037022 C 14.084653,14.311066 14.298781,14.537559 14.563797,14.537559 C 14.787992,14.537559 15.320552,13.849028 15.348134,13.614771 L 19.414354,13.648355 L 19.414351,13.648356 z "
   id="path14"
   style="fill:#f7d517;fill-opacity:1;fill-rule:evenodd" /><polygon
   class="fil1"
   points="10.0216,14.297 10.0216,13.6288 10.2838,13.6316 10.2838,14.297 10.0216,14.297 "
   id="polygon18"
   style="fill:#f7d417;fill-opacity:1;fill-rule:evenodd"
   transform="matrix(1.000609,0,0,1,6.953345,0)" /><path
   class="fil1"
   d="M 23.943713,14.420098 C 24.015978,14.476055 24.061488,14.559899 24.069533,14.654998 C 24.074866,14.691338 24.077578,14.727678 24.077578,14.76682 C 24.077578,14.943007 24.034733,15.116346 23.954425,15.270159 C 23.831272,15.513421 23.496656,15.496652 23.394971,15.244983 C 23.352127,15.135963 23.330706,15.018489 23.333372,14.901062 C 23.344083,14.643788 23.485992,14.408933 23.708164,14.297065 L 23.108534,14.297065 C 23.140667,14.327846 23.15671,14.366988 23.15671,14.411736 C 23.15671,14.425702 23.15671,14.439669 23.151377,14.453681 C 23.103155,14.632624 23.079067,14.819975 23.079067,15.007326 C 23.079067,15.099577 23.084446,15.189072 23.097823,15.281324 C 23.135288,15.58895 23.389594,15.821002 23.689408,15.821002 C 23.925004,15.821002 24.139132,15.675596 24.232818,15.451906 C 24.329171,15.678399 24.543344,15.821002 24.778894,15.821002 C 25.078709,15.821002 25.333015,15.58895 25.370525,15.278567 C 25.381191,15.186269 25.389235,15.096774 25.389235,15.007326 C 25.389235,14.819975 25.362481,14.635427 25.314305,14.453681 C 25.300927,14.397724 25.316971,14.336208 25.357102,14.297065 L 24.760184,14.297065 C 24.982357,14.411736 25.124219,14.643788 25.132264,14.901062 C 25.132264,14.90947 25.132264,14.917831 25.132264,14.929041 C 25.132264,15.035258 25.113508,15.144324 25.073377,15.244983 C 24.971646,15.496652 24.637031,15.513421 24.513878,15.272962 C 24.414859,15.082809 24.374681,14.867525 24.396103,14.652195 C 24.406814,14.559898 24.452324,14.476054 24.524588,14.420097 L 23.943713,14.420097 L 23.943713,14.420098 z "
   id="path20"
   style="fill:#f7d417;fill-opacity:1;fill-rule:evenodd" /><polygon
   class="fil1"
   points="17.1378,14.4201 17.1378,13.6316 17.4027,13.6288 17.4027,14.4201 17.1378,14.4201 "
   id="polygon22"
   style="fill:#f7d417;fill-opacity:1;fill-rule:evenodd"
   transform="matrix(1.000609,0,0,1,6.953345,0)" /></g>
</svg>